<svg xmlns="http://www.w3.org/2000/svg" width="303.532755" height="126.587471" viewBox="0 0 80.309703 33.492936">
  <defs>
    <path id="a" d="M-3987.4658 364.12051h336.05515v164.74722h-336.05515z"/>
    <path id="b" d="M-3987.4658 364.12051h85.976654v40.557789h-85.976654z"/>
    <path id="c" d="M-3987.4658 364.12051h85.976654v40.557789h-85.976654z"/>
  </defs>
  <path d="M3790.6428 367.75507c-14.3247-2.5297-25.6174-12.15522-30.1399-25.69016-1.3922-4.16672-1.9334-7.56648-1.937-12.16819-.01-9.45751 3.274-18.23763 9.423-25.21409 5.9623-6.76468 13.5718-11.00006 22.5216-12.5353 4.0633-.69701 10.5393-.56223 14.2875.29736 11.8048 2.70722 20.983 9.8836 26.3516 20.6041l1.2822 2.56043.01-2.18282.01-2.18281h6.2662l.4845 1.60015c.8968 2.96196.8813 3.2145.5517-9.00848-.1286-4.77003-.565-6.64994-2.3855-10.27476-2.8151-5.60516-7.0676-9.84129-12.407-12.35921-4.0143-1.89306-2.8228-1.80486-25.7813-1.90838l-20.7038-.0933V265.99988H3780.8579v-13.82114l-.9922.73977c-7.212 5.37718-9.6979 8.40563-10.0453 12.23771l-.1445 1.59352-1.6189.17683c-2.4673.26949-9.7475 1.38099-12.8637 1.96397-16.154 3.02202-27.5079 6.56466-51.2188 15.9813-9.8822 3.92463-10.8466 4.172-14.1153 3.62066-3.5925-.60596-6.5588-2.58858-7.8644-5.25639-.9898-2.02261-.6297-7.57534.6525-10.06404.2705-.52496.7964-1.10366 1.1686-1.286 1.2172-.59632 7.1645-.93056 11.2098-.63 4.4429.33012 5.596.66059 6.3197 1.81122.2939.46734.6686.85429.8326.8599.5111.0175 10.8116-4.71677 16.6357-7.64602 13.9363-7.00924 23.2895-13.8584 29.3921-21.52324l1.7307-2.17367-2.2003-2.08213c-4.363-4.12878-11.4218-9.44679-18.243-13.74402-14.9065-9.39079-34.6577-18.56358-72.6646-33.74674-10.1558-4.05709-11.8724-5.18266-13.7599-9.02246-.6897-1.40308-.7195-1.63298-.7039-5.43382.014-3.28941.1196-4.33997.6204-6.13742.7601-2.72788 1.676-4.17579 2.9687-4.69305 1.7783-.71154 6.5604-1.02625 13.0425-.85833 6.2734.16251 9.4229.57174 10.6653 1.38579.8733.57216 2.1021 3.29736 2.4388 5.40822.4014 2.51742.3322 7.85307-.1184 9.11799-.2053.57651-.3443 1.07722-.3088 1.11268.035.0355 2.2625.82982 4.949 1.76524 2.6865.93542 11.0163 3.92774 18.5106 6.64961 26.3809 9.58129 36.0994 12.73667 49.7416 16.15 11.9711 2.99521 21.8742 4.66983 35.3219 5.97297 4.6214.44782 23.7293.61682 29.2922.25906 13.6787-.8797 26.0036-2.81728 39.6318-6.23051 13.6672-3.42301 23.6948-6.67933 49.8739-16.19589 7.4215-2.69786 15.6918-5.67039 18.3783-6.60561 2.6865-.93521 4.9135-1.72941 4.949-1.76487.035-.0355-.1036-.53616-.3089-1.11267-.4505-1.26493-.5197-6.60058-.1183-9.118.3366-2.11086 1.5655-4.83606 2.4387-5.40822 1.2424-.81405 4.3919-1.22328 10.6653-1.38579 6.4733-.16769 11.2674.14692 13.0311.85515.534.21447 1.249.79736 1.5888 1.29531 1.3776 2.01902 2.2915 6.755 2.109 10.9292-.092 2.10937-.2427 2.84833-.8279 4.0659-.9079 1.88909-2.4333 3.62454-4.2397 4.82353-.7869.52236-5.9856 2.77809-11.7081 5.0802-40.8327 16.42659-58.6045 24.88854-74.3219 35.38797-5.7009 3.80829-12.9311 9.52943-15.6742 12.40272l-.8575.8982 1.7109 2.16357c6.0128 7.60404 15.4863 14.54193 29.3691 21.50836 5.8921 2.95669 16.138 7.66791 16.6389 7.65079.164-.006.5387-.39256.8326-.8599.7237-1.15063 1.8767-1.4811 6.3197-1.81121 3.8334-.28483 9.6735.008 11.1189.55753 2.0419.77635 3.332 8.49579 1.9089 11.4225-1.2946 2.66246-4.2674 4.6502-7.8613 5.25639-3.2642.55057-4.2257.30381-14.11-3.62085-11.2143-4.45279-18.6966-7.23059-25.04-9.29607-4.8557-1.58109-13.3212-3.98131-16.13-4.57336-1.3385-.28213-1.6892-.53211-4.3733-3.11755-3.6407-3.50696-6.7575-5.72743-10.8402-7.72294-3.5683-1.74405-6.1582-2.64399-9.5449-3.31657-1.7867-.35484-3.2601-.92689-6.5192-2.53103-2.316-1.13992-4.2627-2.07258-4.326-2.07258-.063 0-.1151 3.08005-.1151 6.84455v6.84455l2.4474.31264c8.4931 1.08494 18.3027 5.35873 23.4542 10.21836 4.7699 4.49973 7.5375 10.87239 8.5111 19.59812.1605 1.43889.4333 10.47429.6062 20.07866.3142 17.46179.2988 18.16548-.4996 22.82032l-.1475.85989h-3.4359c-2.5187 0-3.4627.0883-3.5364.33073-.055.1819-.4867 1.78925-.9587 3.57188l-.8582 3.24114h-6.268l-.022-1.38906-.022-1.38906-.8665 1.85208c-5.1253 10.95581-14.9919 18.75031-27.1359 21.4371-2.6818.59335-11.0261.76419-13.7583.28167zm9.6573-5.45623c14.3375-1.62312 25.9348-12.45452 28.5631-26.67667.5365-2.90314.5329-8.58425-.01-11.43135-1.8423-9.71143-7.8495-18.11941-16.2873-22.79617-8.0347-4.45341-18.0934-5.27391-26.6885-2.17703-10.7162 3.86116-18.465 12.77257-21.0773 24.23977-.6867 3.01456-.6229 10.18183.1193 13.39909 2.2857 9.90795 8.5308 17.79315 17.6507 22.28622 5.6884 2.80247 11.5822 3.85181 17.7271 3.15614zm-8.599-6.98765c-9.9838-2.10778-17.7141-9.64443-20.1493-19.6447-.7932-3.25718-.7932-8.28236 0-11.53954 1.9602-8.0495 7.5656-14.82537 14.8176-17.91134 3.8574-1.6415 5.5922-1.97282 10.3588-1.97838 5.2248-.006 7.3475.45654 11.5094 2.50839 18.9891 9.36178 19.2122 36.43046.3806 46.16315-3.8302 1.97956-6.3005 2.57575-11.0962 2.67804-2.7781.0592-4.6559-.0297-5.8209-.27562zm-8.9311-20.94934c.7065-.35803 2.768-1.77498 4.5811-3.14883 6.3354-4.80065 8.7426-6.2062 15.0657-8.79695 4.6542-1.90698 6.0556-2.64975 7.1873-3.80939.9396-.96287 1.0141-1.15141 1.0063-2.5478-.011-1.97684-1.1052-3.92303-3.4258-6.09386-8.1538-7.62747-23.6525-4.00378-30.3406 7.09382-3.1211 5.17882-3.2487 11.37336-.3251 15.77795 1.6623 2.50444 3.4552 2.94183 6.2511 1.52506zm-89.097-35.71014c-23.9384-1.19431-43.7311-4.56135-60.9948-10.37619-30.3548-10.22424-42.6273-25.51734-30.6877-38.24073 1.0938-1.16561 2.9167-2.80903 4.0508-3.65204 19.586-14.55826 68.0341-20.09897 112.8669-12.90787l4.8622.7799 3.7367 2.48054c2.0552 1.36429 4.9748 3.41163 6.4879 4.54963l2.7511 2.06909-1.1541 1.02417c-.7777.69015-1.3297.98403-1.6928.90109-.2963-.0677-2.8604-.72584-5.6981-1.46254-14.5658-3.78154-28.6029-5.44307-46.0375-5.44934-10.1137-.004-13.8829.20248-21.9604 1.20089-26.9206 3.32753-43.7897 12.87717-41.8268 23.67838.1562.85938.7214 2.45549 1.2562 3.54689 1.2596 2.57108 4.9669 6.33908 8.556 8.69628 9.7455 6.40037 24.8073 11.40718 42.6439 14.17555l4.4116.6847 1.6738 1.65758c4.0754 4.03575 9.1019 6.0132 15.257 6.00214 3.6895-.007 5.234-.42359 13.0283-3.51707l6.9907-2.77453 3.7041-.30218c17.6184-1.43724 32.1413-5.34433 40.9208-11.00886.9693-.62542 2.2274-1.55719 2.7957-2.07061.9943-.89827 1.1773-.95385 4.8521-1.47341 2.1004-.29696 4.1339-.57807 4.519-.62468l.7-.0847.099 2.7944c.098 2.75162.4009 3.75871 2.0017 6.65292.1305.23597-6.3095 3.22165-9.5866 4.44446-11.128 4.15228-26.1123 7.03038-42.8625 8.23276-3.9578.2841-22.1496.5488-25.6646.37343zm188.1188-.00079c-9.45-.47572-22.4159-1.69297-23.853-2.23933-.4768-.18127-.6212-.43735-.622-1.10256 0-.75702-.302-2.77637-.9539-6.39769-.1081-.60039-.086-.97145.054-.88566.4476.27572 7.0611 1.55326 11.3325 2.18911 2.3392.34823 6.4557.82773 9.1478 1.06555l4.8948.43242 6.9907 2.77728c7.7924 3.09581 9.3373 3.5132 13.0282 3.51983 6.1447.011 11.1822-1.96718 15.2393-5.98439l1.6561-1.63982 2.8418-.43356c15.3557-2.34275 28.0829-5.96683 37.8431-10.77584 7.1966-3.54591 12.9708-8.32373 14.9648-12.38264.5361-1.0914 1.1014-2.70999 1.2561-3.59685 1.6716-9.58084-11.5174-18.31133-33.8919-22.43492-23.6284-4.35467-55.164-2.87815-78.6543 3.68265l-3.3803.94411-.7207-.51373c-.3964-.28255-.9337-.7493-1.1938-1.03723-.4629-.51225-.4077-.57257 2.571-2.80995 1.6743-1.25755 4.5798-3.29145 6.4567-4.51978l3.4125-2.23334 3.1446-.5331c33.5489-5.68769 71.7035-4.11936 96.5796 3.96988 20.9883 6.825 30.3255 17.40022 25.0937 28.4208-7.4465 15.68572-42.3529 28.66477-86.1174 32.02056-5.0553.38763-22.8298.71416-27.1198.4982zm-217.6198-79.90556c-.8004-.0533-3.4198-.22369-5.8209-.37853-22.738-1.46633-46.3302-6.21296-66.6672-13.4131-26.5354-9.39466-46.7909-22.83584-56.6645-37.60155-8.6035-12.86626-8.8104-26.18989-.5893-37.9455 2.0249-2.89539 7.5108-8.37664 10.8621-10.85277 16.9185-12.50049 43.5306-20.26822 75.885-22.14987 5.8113-.33798 20.5498-.33803 26.9875-.0001 33.5843 1.76292 66.534 9.8531 91.5828 22.48648 11.8359 5.96942 20.5501 12.01539 28.0308 19.44796 6.5479 6.50581 10.3996 12.22852 12.7728 18.97726 2.2862 6.50166 2.3249 13.73248.1063 19.91648-3.007 8.38205-10.5881 16.72223-20.8994 22.99223l-2.4421 1.48496-3.6433-.80499c-6.4767-1.43102-21.5509-5.50825-21.9906-5.94796-.052-.0521.6536-.47259 1.5683-.93434 6.3269-3.19381 12.5442-8.15463 16.0976-12.84444 1.7798-2.34897 3.8427-6.53684 4.5502-9.23712.838-3.19885.7826-7.86755-.1348-11.37087-4.0259-15.37351-23.2752-30.17238-51.4913-39.5866-25.2569-8.42686-55.4096-11.56279-82.2854-8.5578-29.7769 3.32936-52.1313 14.12058-59.1527 28.55507-7.0715 14.53732 1.6057 30.71456 23.5662 43.93501 8.4635 5.09511 20.959 10.3904 32.0672 13.58931 14.7566 4.24956 28.0132 6.46021 45.4557 7.58011 2.5976.16678 2.7666.21972 9.267 2.90268 6.5614 2.70813 16.6658 7.03215 19.9599 8.54155l1.7102.78363-1.3133.15497c-1.5312.18066-25.225.42115-27.3748.27784zm240.6951-.0956c-1.8606-.11317-3.4323-.25515-3.4927-.31552-.1525-.15254 9.4692-4.36509 19.5757-8.5706l8.4666-3.52313 4.6303-.28916c20.7997-1.29895 40.2809-5.46335 57.8114-12.35806 4.9548-1.94869 13.4905-6.12741 17.7271-8.67846 32.4628-19.5471 34.7512-44.95734 5.4855-60.91012-22.6062-12.32261-61.4584-16.07699-97.8251-9.45304-36.8817 6.71777-65.8596 22.37312-74.8827 40.45545-2.0649 4.13794-2.8324 7.25831-2.8311 11.50937 0 4.0898.5603 6.43652 2.4271 10.18646 1.5205 3.0544 2.9468 5.0274 5.6229 7.77797 3.3262 3.41877 7.5807 6.52874 12.654 9.24983l2.3841 1.27872-6.6861 1.88493c-7.361 2.07522-10.169 2.7952-15.6367 4.00936l-3.659.81251-2.1619-1.30815c-4.5442-2.74975-8.1563-5.52966-11.6485-8.965-6.583-6.4757-10.1735-13.31395-11.0251-20.99787-.9254-8.34933 1.9959-16.96799 8.8167-26.01263 2.0596-2.73108 8.2926-8.96116 11.6951-11.68957 25.3296-20.31165 68.1603-33.97213 114.001-36.35964 7.6939-.40072 25.7047-.18107 32.4458.3957 33.7966 2.89161 60.6416 12.25083 75.0926 26.18025 5.7586 5.55076 9.0078 10.71837 10.7885 17.15823.9223 3.33587 1.1532 8.76641.5257 12.36565-4.2271 24.24595-36.9192 47.10523-84.1613 58.84816-13.9318 3.46299-27.0964 5.57443-43.2559 6.93772-5.5459.46788-27.3079.71978-32.884.38064zM4282.9009 153.55163c-6.9718-.79573-14.7669-3.09662-20.8191-6.14513-2.9746-1.49834-6.4942-3.63875-7.2929-4.43518-1.0204-1.01745-1.0021-2.38446.046-3.4324 1.1731-1.17305 2.01-1.03945 5.002.7985 8.2112 5.04393 17.4788 7.92761 27.1108 8.43573 3.88.20468 3.9758.22423 4.5883.9363.8682 1.00937.8573 2.60671-.024 3.48789-.6178.61774-.7953.64776-3.6381.6151-1.6437-.0189-3.8815-.13624-4.9729-.26081zm-39.6875-10.73575c-.2183-.0777-1.7363-1.46531-3.3734-3.08365-2.7293-2.69793-2.9766-3.02406-2.9766-3.92448 0-.8263 1.2432-2.98789 7.8393-13.63037 4.3116-6.95658 8.8062-14.01071 9.988-15.67585 2.3516-3.31341 6.077-7.38363 8.3627-9.13689 3.7084-2.84452 10.4146-5.84906 15.2947-6.8524 2.4817-.51025 2.7373-.61865 2.8821-1.22258.788-3.28665 3.8755-6.05468 7.2621-6.51071 1.2221-.16457 1.2365-.17866 4.7625-4.68184 4.3349-5.53618 6.4938-7.84418 12.2376-13.08261 7.1541-6.52481 27.5604-23.90235 28.9273-24.63388.3131-.16758.9584-.30469 1.4339-.30469.7491 0 1.2643.39962 3.8539 2.98923 2.7595 2.75952 2.9892 3.06642 2.9892 3.9938 0 .85389-1.0971 2.77681-7.3143 12.81962-10.63 17.17111-13.463 21.13749-17.5964 24.63569-4.2386 3.58725-11.0566 6.8108-16.7557 7.92213l-2.3758.46328-.6165 1.61461c-1.1437 2.99517-3.5883 5.01374-6.7797 5.59813-.8604.15756-1.5836.3167-1.6071.35364-.4791.75409-6.8884 8.79126-8.1094 10.16918-3.1652 3.57185-12.353 11.8391-25.0992 22.58435-12.2368 10.31577-11.8979 10.06994-13.2292 9.59629zm6.6146-10.65027c21.2285-17.74432 27.4108-23.63251 33.9778-32.36136l.7475-.99355-1.0967-1.18974c-.6032-.65435-1.2377-1.49925-1.41-1.87755-.2943-.64582-.3935-.67719-1.6248-.51385-3.6271.48115-10.8066 3.52339-13.9251 5.90059-2.3407 1.78432-5.0208 4.66594-7.4828 8.04547-1.7546 2.40853-15.8714 24.83469-16.2629 25.83538-.075.19059.1978.69443.6052 1.11964.6141.64105.8121.71788 1.1588.44976.23-.17785 2.6208-2.1645 5.313-4.41479zm41.882-37.50321c2.4706-1.24511 2.3132-5.34944-.2518-6.56662-2.5197-1.19568-5.3823.55792-5.3823 3.29713 0 1.86357.7938 2.9714 2.5772 3.59646 1.0513.36848 1.8455.28353 3.0569-.32697zm9.844-7.49679c1.0187-.2674 3.0138-.96093 4.4336-1.54118 6.6546-2.71957 9.9642-5.47261 14.9411-12.42874 2.051-2.86659 15.6748-24.69824 15.8638-25.42129.1381-.52813-1.077-1.73347-1.5568-1.54429-.3976.15677-10.6055 8.73232-17.4676 14.67443-6.2123 5.37935-12.3316 10.94542-14.6696 13.34335-2.1966 2.25278-8.0186 9.46405-8.0235 9.938 0 .17678.2212.44156.4956.58839.2743.14684.9331.92118 1.4638 1.72077 1.0907 1.64319.9142 1.617 4.5196.67056zm-15.875 53.43494c-2.7053-.21094-6.8553-.96933-9.312-1.70171-2.1861-.65171-2.9692-2.08909-2.0775-3.81336.664-1.28412 1.6607-1.49519 4.0428-.85614 7.8101 2.09526 17.001 1.90461 24.5739-.50976 11.1421-3.55228 20.6038-11.58119 25.8724-21.95453 2.8498-5.61078 4.3656-11.393 4.8102-18.34913.1452-2.27106.2501-2.70206.7892-3.24115 1.2836-1.2836 3.8254-.53261 4.1789 1.23467.2372 1.1863-.2946 7.11999-.9098 10.15026-3.628 17.87106-16.8738 32.22119-34.4404 37.31182-3.1627.91651-6.0909 1.43421-9.8548 1.74236-3.495.28614-3.8401.28553-7.6729-.0133zm41.329-1.199c-.4069-.22062-.8534-.69985-.9922-1.06497-.5814-1.52907-.3938-1.84301 3.27-5.47344 5.4027-5.35357 8.7236-9.96161 11.8588-16.45492 6.2297-12.90222 7.2547-28.42972 2.7732-42.00955-.6351-1.92433-1.6459-4.58607-2.2462-5.91498-1.21-2.67839-1.2611-2.97068-.7072-4.04197.7192-1.3907 2.9347-1.70974 3.9652-.57101 1.0285 1.13645 3.7571 8.19873 4.9055 12.69683 1.6158 6.32816 2.2764 15.10206 1.6175 21.48059-1.2361 11.96537-6.0585 23.70699-13.5344 32.95371-2.0598 2.54769-7.0338 7.55292-8.2313 8.283-1.0402.63422-1.6736.66181-2.6789.11671zm-89.8025-15.45675c-.7526-.30296-1.6778-1.78046-3.4628-5.52999-3.5557-7.46889-5.8751-17.34916-5.8751-25.02694 0-2.33976.05-2.58625.6494-3.18543.9237-.92371 2.7141-.91381 3.5913.0199.5781.61538.6449.97679.8297 4.48624.4306 8.17998 2.2512 15.11987 5.9454 22.66347 1.0718 2.18863 1.9487 4.15296 1.9487 4.36518 0 .7214-.7517 1.84298-1.4478 2.16013-.8018.36532-1.3591.37746-2.1788.0475zm51.7808-3.35781c-1.0177-.37202-1.5875-1.22802-1.5875-2.38483 0-1.84155.6798-2.3279 3.5638-2.54958 5.7805-.44432 10.8834-2.56902 14.7144-6.12664 1.4461-1.34289 2.519-1.65675 3.6551-1.06926 1.6867.87226 1.8291 2.52443.3578 4.15467-2.479 2.74703-8.2148 6.04942-12.3228 7.09491-3.2745.83333-7.3413 1.26072-8.3808.88073zm-45.9477-17.25838c-.9764-.59537-.9991-.65479-1.5688-4.11831-.587-3.56787-.5871-10.98333-.0002-14.55208 2.1481-13.06305 8.6444-23.96208 18.9364-31.7703 2.893-2.19478 7.1245-4.60991 8.0771-4.60991 1.7866 0 2.9966 1.97272 2.206 3.59651-.2304.47322-1.1761 1.20442-2.6812 2.07302-3.5084 2.02474-6.366 4.2288-9.3078 7.17908-6.2361 6.25426-10.5238 14.54352-12.079 23.35229-.7181 4.06736-.7718 10.14966-.125 14.16372.5271 3.27143.3583 4.14957-.9256 4.81349-.9879.51085-1.5298.48357-2.5319-.12751zm24.4402-25.68508c-.8151-.64115-1.1056-1.75403-.7216-2.76421.346-.90983 3.5753-4.29033 5.5787-5.83982 4.5349-3.50741 10.5265-5.66277 16.0307-5.76676 2.2321-.0422 2.477.005 3.1089.59566.5357.50106.6858.89467.6858 1.79857 0 1.80372-.7457 2.33235-3.5993 2.5517-6.5327.50215-10.9421 2.52941-15.7142 7.22483-2.492 2.45197-2.8754 2.73243-3.7346 2.73243-.5589 0-1.2394-.22167-1.6344-.5324zm-33.3522-7.96934c-.7707-.44799-1.2545-1.87417-.9711-2.86242.3765-1.31277 3.047-6.22943 4.9021-9.02529 10.1812-15.34409 26.8671-25.49881 45.1636-27.48571 3.2349-.3513 9.9208-.35667 13.0411-.0105 6.5221.72359 13.6548 2.63923 18.757 5.03754 2.0956.98505 2.5132 2.99906.9028 4.35412-1.0291.86592-1.5331.83384-4.134-.26309-7.6194-3.21345-15.186-4.56839-23.9698-4.29222-8.5539.26894-15.2417 1.93364-23.0414 5.73535-11.2787 5.49745-20.306 14.42037-25.8946 25.59501-.8156 1.631-1.7148 3.08952-1.9982 3.24115-.6611.35384-2.1295.34108-2.7575-.024zM4773.2438 172.63788c-25.858-2.53434-44.7591-7.46134-62.2523-16.22755-26.6552-13.35733-40.3374-32.92946-37.4452-53.56425 1.3166-9.39366 4.4988-15.66514 11.5481-22.75916 3.6806-3.70394 15.6892-12.84813 15.6892-11.94685 0 .12971-2.3826 2.01466-5.2946 4.18923-14.471 10.80635-20.513 22.28268-19.1486 36.37126 1.2517 12.92397 9.6716 24.7381 24.6836 34.63385 23.3436 15.38794 52.8917 22.09169 92.7502 21.04275 31.1933-.82096 50.9332-4.77781 69.743-13.97998 10.0407-4.91216 16.2526-9.06448 22.5085-15.04587 10.4361-9.97816 14.2562-19.37774 12.7517-31.37669-1.2318-9.82376-4.9691-17.36909-12.5155-25.26784-5.3354-5.58447-11.4684-9.8055-21.537-14.8228-21.4987-10.71305-43.6691-16.74979-69.1392-18.82572l-6.9441-.56601 8.4419.28884c34.0315 1.16414 74.7416 14.75429 91.9478 30.69459 17.2841 16.01257 20.7079 37.72761 8.7887 55.74181-14.0044 21.16568-47.2488 36.62085-87.9706 40.89726-7.8846.82801-30.2361 1.14745-36.6056.52317zm-6.3403-12.21154c-5.086-2.34278-7.1184-5.24957-8.3627-11.96008-.8851-4.77347-1.0646-5.11779-5.1075-9.7963-6.6818-7.73238-7.0088-8.95622-4.8958-18.32267 1.5478-6.86144 1.3058-9.42119-1.5303-16.18207-3.7652-8.97599-16.2308-30.56925-20.3464-35.2449-5.304-6.02554-17.7965-12.97308-27.9948-15.56882-4.8128-1.22499-6.7695-1.37387-17.2051-1.30916-13.3454.0826-20.5874.85163-45.2877 4.80831-19.1834 3.07294-22.7841 4.082-33.204 9.3053l-7.2344 3.62649-6.1985.009c-3.4093.004-8.1007.43109-10.4255.94514-7.9921 1.76719-8.5313 1.76861-11.1589.03-1.3208-.87405-2.9646-1.58924-3.6529-1.58924-1.6219 0-3.0463-3.31111-2.9202-6.78822.064-1.76502-.6945-4.55922-2.4191-8.9115-3.3475-8.44768-5.0778-14.75962-4.619-16.84879.6486-2.95318 5.7572-7.02329 11.9425-9.51486 2.0735-.83524 4.0027-1.74101 4.2869-2.01274.2846-.27215.021-2.41866-.5866-4.77775-.8575-3.32876-1.3476-4.28361-2.1987-4.28361-1.997 0-4.0442-1.88206-4.7012-4.32194-1.2363-4.59101 2.8012-8.48722 8.8861-8.57516 2.7154-.0385 3.4112.20411 4.991 1.74602 2.4981 2.43813 3.4226 5.80316 2.1345 7.76914-.5295.80795-1.3286 1.60943-1.7758 1.78106-.6692.25675-.6287 1.04125.2285 4.42851l1.0419 4.11646 2.9777-.30168c6.1043-.61894 12.2014-.18829 14.5808 1.03015 1.9658 1.0065 2.4666 1.71222 3.5845 5.05154.7146 2.13486 1.6356 5.68395 2.0465 7.88681l.7472 4.00528 4.5956.3941c4.9194.42194 9.1915-.03 23.0126-2.43042 9.0568-1.57353 34.6655-6.94814 46.0424-9.66318l6.4913-1.54903.01-9.15585c.021-16.88895 2.1687-21.96256 11.7643-27.76937 5.8305-3.52837 5.4794-3.18513 4.4899-4.38979-.4768-.58052-2.8054-1.95353-5.1747-3.05117-2.3693-1.09765-4.5028-2.47753-4.7412-3.06649-.2383-.58889-.5704-5.62588-.7378-11.19325-.2649-8.80782-.1725-10.32409.7122-11.67429 1.1869-1.81154 3.7006-2.97628 7.7159-3.57539l2.8682-.42793v-4.3666c0-3.59975-.2122-4.55858-1.2076-5.45955-1.6014-1.44922-1.5233-2.80413.273-4.74253 1.0722-1.15696 2.0797-1.59775 3.6518-1.59775 3.948 0 6.8249 4.97125 3.9249 6.78231-1.0224.63849-1.2076 1.40818-1.2076 5.01692v4.26267l3.472.72271c1.9097.39753 4.3552 1.26302 5.4345 1.92346l1.9625 1.20073v7.44902c0 5.8662.2247 7.90941 1.0567 9.61598l1.0567 2.16695 9.6614-5.88904c11.4306-6.96748 12.9598-7.55925 18.1087-7.00783l3.811.40823.4389-2.60793c.2413-1.43433 1.175-5.06305 2.0748-8.0638 1.148-3.82821 1.4605-5.73431 1.0474-6.38924-.7205-1.14227 2.0624-9.95551 3.8687-12.25187.6563-.83431 2.5575-5.40006 4.2249-10.14611 1.6674-4.74604 3.2594-8.85997 3.5377-9.14201.8007-.8115 3.0429.18272 3.0429 1.34934 0 .58132-1.2227 4.93031-2.7172 9.66437-1.4945 4.73405-2.7173 9.46461-2.7173 10.51231 0 1.04775-.4595 4.04354-1.0212 6.65733-.8099 3.76898-1.2881 4.85383-2.311 5.24272-1.3287.50515-2.5949 4.18745-3.92 11.40012-.9564 5.20519-.9089 5.34564 1.9687 5.81943 4.5275.74547 6.4537 1.8619 7.4907 4.34161 1.5315 3.66219 1.7365 13.38686.5085 24.12181-1.2285 10.7396-1.3332 10.39757 3.6059 11.77857 3.5772 1.00017 20.6123.84737 29.0028-.26016 13.0063-1.7168 14.9425-2.19692 19.6324-4.86823l4.4261-2.52097 1.6663-6.03364c1.2313-4.45874 2.0738-6.38418 3.2275-7.37656 1.974-1.698 6.9546-3.19529 10.6289-3.19529h2.83l1.0192-3.63226c.9222-3.28686.9298-3.72167.08-4.57193-1.3843-1.38431-1.1476-3.38865.6576-5.5676 1.2975-1.56613 2.0396-1.92792 3.9549-1.92792 1.2968 0 3.1258.39711 4.0644.88257 3.0271 1.56536 2.8713 6.4411-.2614 8.17733-1.3074.72462-1.9386 1.71547-2.5191 3.95431-1.0785 4.16006-1.1162 4.06224 2.0727 5.37406 3.7313 1.53492 8.3999 6.1846 8.9024 8.86621.2614 1.39646-.1242 3.63604-1.2342 7.16415-.888 2.82291-1.7737 5.39657-1.9681 5.71921-.1943.32265-.3748 1.72813-.401 3.1233-.075 3.98848-3.5673 6.85721-8.3478 6.85721-1.1158 0-3.6922.67593-5.7254 1.50209-3.586 1.45712-3.8919 1.4822-10.2183.83781-10.1496-1.03382-15.7428-.24349-45.771 6.46869-23.2309 5.19266-30.1944 8.52637-34.0859 16.31833-1.7436 3.49118-1.5726 4.34443 3.3739 16.83963 3.9978 10.0985 8.9965 20.32163 14.7673 30.20119l4.238 7.25544 3.8429-.57924c3.3138-.49949 3.8794-.77092 4.109-1.97187.1464-.76597.034-1.39269-.2451-1.39269-.2816 0-1.1592-1.01895-1.9508-2.26435-2.1539-3.38891-1.6244-6.43405 1.7599-10.12014l2.6409-2.87654 4.1982.30041c5.1598.36929 7.7314 1.75971 9.6446 5.21516 1.2081 2.18194 1.3621 3.06477 1.0167 5.8291-.3368 2.69526-.765 3.57202-2.4805 5.07819-2.5431 2.23299-2.6326 3.45006-.2914 3.96434 4.6945 1.03111 12.2905 7.68346 14.602 12.78796 2.3069 5.09464 2.4345 7.91792.7662 16.94953-.8561 4.63481-1.944 8.76067-2.4604 9.33126-.7036.77752-.788 1.42958-.3522 2.71837.432 1.27682.2209 3.03733-.8549 7.13-1.6962 6.4527-2.6921 7.54795-6.864 7.54795-7.6002 0-12.1147 1.11925-19.6015 4.85986-7.8107 3.90251-9.4741 4.20982-13.2844 2.45473zm-54.9668-139.72461c3.306-1.87246 5.1504-4.78354 5.1504-8.12881 0-3.36718-1.362-5.71818-4.2546-7.34392-6.2272-3.49988-14.259.65664-14.916 7.71911-.6472 6.95612 7.4864 11.45422 14.0202 7.75362zm-161.5081 41.42096c-17.1879-1.28272-34.0859-4.85401-45.3701-9.58872-19.1063-8.01668-28.7658-24.25656-23.502-39.51204 4.4123-12.78758 18.8787-25.18286 39.014-33.42832 36.7206-15.03717 83.5555-16.25356 115.5852-3.00189 13.2318 5.47434 23.072 13.96456 26.6888 23.02728 1.1319 2.83622 1.3757 4.6104 1.3899 10.11316.017 6.4943-.043 6.79426-2.2126 11.17096-1.3964 2.81639-3.3984 5.62597-5.3562 7.51661l-3.1264 3.01921 2.2787-3.01921c5.2345-6.93564 7.7046-15.36086 6.4032-21.84073-.9597-4.779-2.7058-8.12205-6.2912-12.04503-3.852-4.21471-8.5623-7.42352-16.357-11.1429-16.4106-7.83072-32.4567-10.64191-57.3612-10.04941-31.8134.75684-58.4974 7.86315-77.8145 20.72304-14.349 9.55253-21.047 20.27813-19.289 30.8876 1.4789 8.92459 7.5285 17.25386 16.3292 22.48225 9.4337 5.60444 25.2498 10.40668 41.7452 12.67504 5.1477.70791 10.5822 1.5114 12.0767 1.78562l2.7173.49847-2.4154-.0343c-1.3284-.0171-3.6381-.12532-5.1326-.23707zm309.2278-51.17773c.146-.14596 3.0388-.55005 6.4284-.89789 8.8155-.90465 14.4212-2.14959 23.6992-5.2633 9.7809-3.28246 14.2401-5.56068 18.4944-9.44884 8.3049-7.59021 8.7772-17.22096 1.2305-25.09167-9.7426-10.16109-28.9904-17.2235-54.7473-20.088-9.0437-1.00576-30.6948-.99981-38.0417.009-12.3435 1.69736-24.2379 5.88007-31.5413 11.09164-6.8411 4.88177-9.1613 9.05707-8.8173 15.86784.2648 5.24889 2.2468 8.88711 6.8734 12.61822 1.6683 1.34541 3.9749 3.20697 5.1258 4.13683 1.151.92982.3266.53444-1.8323-.87864-5.1771-3.38887-9.4514-7.73169-10.9548-11.13044-1.4629-3.30719-1.7249-8.57302-.6161-12.38502 3.0787-10.5848 18.6337-19.32668 41.4608-23.30093 8.765-1.52603 34.656-1.50836 44.3818.0299 15.9405 2.52179 30.841 7.35239 40.7903 13.22371 25.3293 14.94762 22.0499 36.39446-6.9755 45.61915-8.8434 2.81059-15.3831 4.35775-22.3286 5.28252-6.1236.81534-13.1783 1.15275-12.6297.60408zm-183.7088-41.72432c-15.8338-2.4672-29.3258-7.83304-34.8249-13.84995-10.5377-11.52995-1.6413-24.43755 22.2231-32.24314 13.0852-4.27991 24.2755-5.81643 41.9665-5.7623 18.668.0573 29.6004 1.83298 42.8724 6.96427 6.7248 2.60001 9.6694 4.56958 8.8176 5.89798-.4383.68356-1.4605.44264-5.5828-1.31557-15.1061-6.4429-29.4568-8.7319-50.6359-8.07663-21.1292.65368-35.1526 3.64048-47.833 10.1877-8.4638 4.37012-12.5505 9.14589-12.5505 14.66663 0 5.5419 3.7341 10.66496 10.5792 14.51448 5.2783 2.96837 16.9551 6.68514 26.2889 8.36783 8.5622 1.54363 7.5653 2.03328-1.3206.6487zM256.69803 16.84901c-.2183-.078-1.7364-1.4653-3.3735-3.0837-2.7292-2.6979-2.9765-3.024-2.9765-3.9245 0-.8263 1.2432-2.9878 7.8392-13.6303 4.3116-6.9566 8.8062-14.0107 9.988-15.6759 2.3517-3.3134 6.0771-7.3836 8.3628-9.1369 3.7084-2.8445 10.4145-5.849 15.2946-6.8524 2.4818-.5102 2.7374-.6186 2.8822-1.2225.788-3.2867 3.8755-6.0547 7.2621-6.5108 1.2221-.1645 1.2364-.1786 4.7625-4.6818 4.3349-5.53619 6.4938-7.84419 12.2375-13.08262 7.1542-6.52481 27.5605-23.90235 28.9274-24.63388.3131-.16758.9584-.30469 1.4339-.30469.749 0 1.2642.39962 3.8539 2.98923 2.7595 2.75952 2.9892 3.06642 2.9892 3.9938 0 .85389-1.0972 2.77681-7.3143 12.81962-10.63 17.17114-13.4631 21.13754-17.5964 24.63574-4.2386 3.5872-11.0566 6.8108-16.7557 7.9221l-2.3758.4633-.6165 1.6146c-1.1438 2.9952-3.5884 5.0137-6.7797 5.5981-.8604.1576-1.5836.3167-1.6071.3537-.4792.754-6.8884 8.7912-8.1094 10.1691-3.1652 3.5719-12.3531 11.8391-25.0993 22.5844-12.2368 10.3158-11.8979 10.0699-13.2291 9.5963zm6.6145-10.6503c21.2285-17.7443 27.4108-23.6325 33.9779-32.3614l.7474-.9935-1.0966-1.1897c-.6032-.6544-1.2377-1.4993-1.4101-1.8776-.2942-.6458-.3934-.6772-1.6248-.5138-3.6271.4811-10.8066 3.5233-13.925 5.9005-2.3407 1.7844-5.0208 4.666-7.4828 8.0455-1.7546 2.4085-15.8715 24.8347-16.2629 25.8354-.075.1906.1978.6944.6051 1.1196.6142.6411.8122.7179 1.1589.4498.23-.1779 2.6208-2.1645 5.3129-4.4148zm41.8821-37.5032c2.4705-1.2451 2.3132-5.3494-.2518-6.5666-2.5197-1.1957-5.3824.5579-5.3824 3.2971 0 1.8636.7939 2.9714 2.5772 3.5965 1.0513.3684 1.8456.2835 3.057-.327zm9.844-7.4968c1.0186-.2674 3.0137-.9609 4.4336-1.5412 6.6546-2.7195 9.9641-5.4726 14.9411-12.42873 2.051-2.86659 15.6747-24.69824 15.8638-25.42129.1381-.52813-1.077-1.73347-1.5568-1.54429-.3977.15677-10.6055 8.73232-17.4676 14.67443-6.2123 5.37935-12.3316 10.94542-14.6697 13.34338-2.1965 2.2528-8.0185 9.464-8.0234 9.938 0 .1768.2212.4415.4955.5884.2744.1468.9331.9212 1.4638 1.7207 1.0907 1.6432.9142 1.617 4.5197.6706zM4404.0089 431.51477c-.2183-.0777-1.7363-1.46531-3.3734-3.08365-2.7293-2.69793-2.9766-3.02406-2.9766-3.92448 0-.8263 1.2432-2.98789 7.8393-13.63037 4.3116-6.95658 8.8062-14.01071 9.988-15.67585 2.3516-3.31341 6.077-7.38363 8.3627-9.13689 3.7084-2.84452 10.4146-5.84906 15.2947-6.8524 2.4817-.51025 2.7373-.61865 2.8821-1.22258.788-3.28665 3.8755-6.05468 7.2621-6.51071 1.2221-.16457 1.2365-.17866 4.7625-4.68184 4.3349-5.53618 6.4938-7.84418 12.2376-13.08261 7.1541-6.52481 27.5604-23.90235 28.9273-24.63388.3131-.16758.9584-.30469 1.4339-.30469.7491 0 1.2643.39962 3.8539 2.98923 2.7595 2.75952 2.9892 3.06642 2.9892 3.9938 0 .85389-1.0971 2.77681-7.3143 12.81962-10.63 17.17111-13.463 21.13749-17.5964 24.63569-4.2386 3.58725-11.0566 6.8108-16.7557 7.92213l-2.3758.46328-.6165 1.61461c-1.1437 2.99517-3.5883 5.01374-6.7797 5.59813-.8604.15756-1.5836.3167-1.6071.35364-.4791.75409-6.8884 8.79126-8.1094 10.16918-3.1652 3.57185-12.353 11.8391-25.0992 22.58435-12.2368 10.31577-11.8979 10.06994-13.2292 9.59629zm6.6146-10.65027c21.2285-17.74432 27.4108-23.63251 33.9778-32.36136l.7475-.99355-1.0967-1.18974c-.6032-.65435-1.2377-1.49925-1.41-1.87755-.2943-.64582-.3935-.67719-1.6248-.51385-3.6271.48115-10.8066 3.52339-13.9251 5.90059-2.3407 1.78432-5.0208 4.66594-7.4828 8.04547-1.7546 2.40853-15.8714 24.83469-16.2629 25.83538-.075.19059.1978.69443.6052 1.11964.6141.64105.8121.71788 1.1588.44976.23-.17785 2.6208-2.1645 5.313-4.41479zm41.882-37.50321c2.4706-1.24511 2.3132-5.34944-.2518-6.56662-2.5197-1.19568-5.3823.55792-5.3823 3.29713 0 1.86357.7939 2.9714 2.5772 3.59646 1.0513.36848 1.8455.28353 3.0569-.32697zm9.844-7.49679c1.0187-.2674 3.0138-.96093 4.4336-1.54118 6.6546-2.71957 9.9642-5.47261 14.9411-12.42874 2.051-2.86659 15.6748-24.69824 15.8638-25.42129.1381-.52813-1.077-1.73347-1.5568-1.54429-.3976.15677-10.6055 8.73232-17.4676 14.67443-6.2123 5.37935-12.3316 10.94542-14.6696 13.34335-2.1966 2.25278-8.0186 9.46405-8.0235 9.938 0 .17678.2212.44156.4956.58839.2743.14684.9331.92118 1.4638 1.72077 1.0907 1.64319.9142 1.617 4.5196.67056zM4414.7642 485.82551c-.2183-.0777-1.7363-1.46531-3.3735-3.08365-2.7292-2.69793-2.9765-3.02406-2.9765-3.92448 0-.8263 1.2432-2.98789 7.8392-13.63037 4.3116-6.95658 8.8063-14.01071 9.9881-15.67585 2.3516-3.31341 6.077-7.38363 8.3627-9.13689 3.7084-2.84452 10.4146-5.84906 15.2947-6.8524 2.4817-.51025 2.7373-.61865 2.8821-1.22258.788-3.28665 3.8755-6.05468 7.2621-6.51071 1.2221-.16457 1.2365-.17866 4.7625-4.68184 4.3349-5.53618 6.4938-7.84418 12.2376-13.08261 7.1541-6.52481 27.5604-23.90235 28.9273-24.63388.3131-.16758.9584-.30469 1.4339-.30469.7491 0 1.2643.39962 3.8539 2.98923 2.7595 2.75952 2.9892 3.06642 2.9892 3.9938 0 .85389-1.0971 2.77681-7.3143 12.81962-10.63 17.17111-13.463 21.13749-17.5964 24.63569-4.2386 3.58725-11.0566 6.8108-16.7557 7.92213l-2.3758.46328-.6165 1.61461c-1.1437 2.99517-3.5883 5.01374-6.7797 5.59813-.8604.15756-1.5836.3167-1.6071.35364-.4791.75409-6.8884 8.79126-8.1094 10.16918-3.1652 3.57185-12.353 11.8391-25.0993 22.58435-12.2367 10.31577-11.8978 10.06994-13.2291 9.59629zm6.6146-10.65027c21.2284-17.74432 27.4108-23.63251 33.9778-32.36136l.7475-.99355-1.0967-1.18974c-.6032-.65435-1.2377-1.49925-1.41-1.87755-.2943-.64582-.3935-.67719-1.6248-.51385-3.6271.48115-10.8066 3.52339-13.9251 5.90059-2.3407 1.78432-5.0208 4.66594-7.4828 8.04547-1.7546 2.40853-15.8715 24.83469-16.2629 25.83538-.075.19059.1978.69443.6052 1.11964.6141.64105.8121.71788 1.1588.44976.23-.17785 2.6208-2.1645 5.313-4.41479zm41.882-37.50321c2.4706-1.24511 2.3132-5.34944-.2518-6.56662-2.5197-1.19568-5.3823.55792-5.3823 3.29713 0 1.86357.7938 2.9714 2.5772 3.59646 1.0512.36848 1.8455.28353 3.0569-.32697zm9.844-7.49679c1.0187-.2674 3.0138-.96093 4.4336-1.54118 6.6546-2.71957 9.9642-5.47261 14.9411-12.42874 2.051-2.86659 15.6747-24.69824 15.8638-25.42129.1381-.52813-1.077-1.73347-1.5568-1.54429-.3976.15677-10.6055 8.73232-17.4676 14.67443-6.2123 5.37935-12.3316 10.94542-14.6696 13.34335-2.1966 2.25278-8.0186 9.46405-8.0235 9.938 0 .17678.2212.44156.4956.58839.2743.14684.933.92118 1.4638 1.72077 1.0907 1.64319.9142 1.617 4.5196.67056zM3834.98739 919.02441c-25.85802-2.53434-44.75911-7.46134-62.25235-16.22755-26.65511-13.35733-40.33742-32.92945-37.44518-53.56424 1.31665-9.39366 5.82246-14.48718 7.62103-16.06282-2.74234 4.52564-5.8883 8.17253-4.82688 21.9173 1.25165 12.92397 9.6716 24.73809 24.68353 34.63384 23.34365 15.38794 52.89179 22.09169 92.75026 21.04275 31.19331-.82096 50.93315-4.77781 69.74295-13.97998 10.04077-4.91216 16.25259-9.06448 22.50853-15.04587 10.43615-9.97815 14.25623-19.37773 12.75168-31.37668-1.23179-9.82376-4.96911-17.36909-12.51551-25.26784-5.33538-5.58447-11.46837-9.8055-21.537-14.8228-21.49868-10.71305-43.66908-16.74979-69.13916-18.82572l-6.94412-.56601 8.44196.28884c34.03144 1.16414 74.74154 14.75429 91.9477 30.69459 17.28416 16.01257 20.70794 37.72761 8.78873 55.7418-14.00442 21.16568-47.24877 36.62085-87.97062 40.89726-7.88456.82801-30.23608 1.14745-36.60555.52317zm-6.34028-12.21154c-5.08602-2.34278-7.11848-5.24957-8.36274-11.96008-.8851-4.77347-1.0646-5.11779-5.10747-9.7963-6.6818-7.73238-7.0088-8.95621-4.89585-18.32266 1.54785-6.86144 1.30583-9.42119-1.53027-16.18207-3.76522-8.97599-16.23076-30.56925-20.34644-35.2449-5.30392-6.02554-18.1966-12.93148-28.39493-15.52722-4.81275-1.22499-6.3693-1.41547-16.80497-1.35076-13.34534.0826-20.58741.85163-45.28763 4.80831-19.18346 3.07294-22.78415 4.082-33.20401 9.3053l-7.2344 3.62649-6.19857.009c-3.40924.004-8.10067.43109-10.42546.94514-7.99211 1.76719-8.53133 1.76861-11.15894.03-1.32079-.87406-2.96458-1.58924-3.65289-1.58924-1.62188 0-3.04629-3.31111-2.92018-6.78822.0641-1.76502-.69451-4.55922-2.41913-8.9115-3.34744-8.44768-5.0778-14.75962-4.61896-16.84879.64864-2.95318 5.75718-7.02329 11.94247-9.51486 2.07354-.83524 4.00272-1.74101 4.28697-2.01274.28457-.27215.0214-2.41866-.58662-4.77775-.8575-3.32876-1.34759-4.28361-2.19868-4.28361-1.99707 0-4.04426-1.88206-4.70128-4.32194-1.23625-4.59101 2.80121-8.48722 8.88609-8.57516 2.71549-.0385 3.41124.20411 4.99101 1.74602 2.49817 2.43813 3.42264 5.80316 2.13449 7.76914-.52942.80795-1.32851 1.60943-1.77576 1.78106-.66918.25675-.62865 1.04125.22851 4.42851l1.04188 4.11646 2.97769-.30168c6.10437-.61894 12.20138-.18829 14.58085 1.03015 1.9658 1.0065 2.46659 1.71222 3.58443 5.05154.71465 2.13486 1.63562 5.68395 2.04654 7.88681l.74719 4.00528 4.59562.3941c4.91944.42194 9.19149-.03 23.01262-2.43042 9.05677-1.57353 34.56503-7.41014 46.04242-9.66318 26.14698-6.22517 24.38722-6.7476 32.78592-17.41649 1.01429-1.38795 4.56551-5.44309 3.60414-8.42062-2.42113-7.49868-12.92731-16.16466-13.63558-17.02693-.47683-.58051-2.80545-1.95353-5.17472-3.05117-2.36933-1.09765-4.50282-2.47753-4.74117-3.06649-.23836-.58889-.57037-5.62588-.73786-11.19325-.26487-8.80782-.17245-10.32409.71223-11.67429 1.18695-1.81154 3.7006-2.97628 7.71593-3.57539l2.86823-.42793v-4.3666c0-3.59975-.21224-4.55858-1.20766-5.45955-1.60139-1.44922-1.52333-2.80413.27302-4.74253 1.07221-1.15696 2.07966-1.59775 3.65182-1.59775 3.94799 0 6.82485 4.97125 3.92491 6.78231-1.0224.63849-1.20765 1.40818-1.20765 5.01692v4.26267l3.47201.72271c1.90966.39753 4.35518 1.26302 5.43451 1.92346l1.96251 1.20073v7.44902c0 5.8662.22466 7.90941 1.05669 9.61598l1.05669 2.16695 11.29789 16.38264c7.59988 11.0203 8.67873 5.12019 9.37626 3.72597l10.4338-32.85472c3.5421-13.131 8.17222-27.9487 12.12788-39.20149 1.66741-4.74604 3.25938-8.85997 3.53765-9.14201.80071-.8115 3.04294.18272 3.04294 1.34934 0 .58132 3.08324-.10496 1.58875 4.6291-3.28382 13.43682-9.49732 30.09524-11.85391 39.59929-1.41284 5.74936-9.40289 29.27449-10.98946 34.45408-.39772 2.21927-2.77561 6.0145-1.47357 7.40137 3.6685 3.90751 14.40324 5.89606 23.53319 5.92893 6.70438.33353 20.69435-1.62712 29.08485-2.73465 13.00634-1.7168 14.94248-2.19692 19.63246-4.86823l4.42611-2.52097 1.66625-6.03364c1.23132-4.45874 2.0738-6.38418 3.22746-7.37656 1.9741-1.698 6.9546-3.19529 10.62898-3.19529h2.83001l1.01916-3.63226c.92224-3.28686.92982-3.72167.0796-4.57193-1.3843-1.38431-1.14758-3.38865.65758-5.5676 1.29744-1.56613 2.0396-1.92792 3.95491-1.92792 1.29676 0 3.12575.39711 4.06442.88257 3.02707 1.56536 2.87126 6.4411-.26145 8.17733-1.30741.72462-1.93863 1.71547-2.51905 3.95431-1.07851 4.16006-1.11626 4.06224 2.07265 5.37406 3.73133 1.53492 8.39997 6.1846 8.90238 8.86621.26145 1.39646-.12415 3.63604-1.23411 7.16415-.88806 2.82291-1.77375 5.39657-1.96815 5.71921-.19428.32265-.37485 1.72813-.40095 3.1233-.0748 3.98848-3.56732 6.85721-8.34785 6.85721-1.11579 0-3.69223.67593-5.72538 1.50209-3.58601 1.45712-3.89192 1.4822-10.21834.83781-10.14962-1.03382-15.74281-.24349-45.77095 6.46869-23.23095 5.19266-30.1944 8.52637-34.08589 16.31833-1.74358 3.49118-1.57264 4.34443 3.37388 16.83963 3.99776 10.0985 8.99649 20.32163 14.76729 30.20119l4.23804 7.25543 3.84284-.57923c3.31386-.4995 3.87944-.77092 4.10905-1.97187.14641-.76597.0343-1.39269-.24519-1.39269-.28157 0-1.15918-1.01896-1.95074-2.26435-2.15386-3.38891-1.62436-6.43405 1.75989-10.12014l2.64091-2.87654 4.19823.30041c5.1598.36929 7.73135 1.75971 9.64456 5.21516 1.20809 2.18194 1.36205 3.06477 1.01668 5.8291-.33677 2.69526-.76503 3.57202-2.48044 5.07819-2.54319 2.23299-2.63263 3.45006-.29142 3.96433 4.69448 1.03111 12.29048 7.68347 14.60195 12.78797 2.30694 5.09463 2.43457 7.91792.76627 16.94953-.85614 4.63479-1.94402 8.76066-2.46043 9.33124-.70361.77752-.78804 1.42959-.35217 2.71838.43202 1.27681.22081 3.03733-.8549 7.13-1.6962 6.4527-2.69217 7.54794-6.86404 7.54794-7.60024 0-12.11465 1.11926-19.60145 4.85987-7.81077 3.9025-9.47412 4.20982-13.2844 2.45473zm-216.47492-98.30364c-17.18791-1.28272-34.08592-4.85401-45.37017-9.58872-19.106214-8.01668-28.765754-24.25656-23.501974-39.51204 4.41227-12.78758 18.87874-25.18285 39.013984-33.42831 36.7206-15.03717 83.55555-16.25356 115.58528-3.0019 13.23175 5.47435 23.07197 13.96456 26.68874 23.02728 1.13191 2.83622 1.37575 4.6104 1.38991 10.11317.0171 6.49429-.0428 6.79425-2.21262 11.17095-1.39638 2.81639-3.39842 5.62597-5.35617 7.51661l-3.12638 3.01921 2.27864-3.01921c5.23452-6.93564 7.70461-15.36086 6.40327-21.84073-.95976-4.77899-2.70587-8.12205-6.29128-12.04503-3.852-4.2147-8.56227-7.42352-16.35692-11.1429-16.41061-7.83072-32.45673-10.6419-57.36124-10.04941-31.8134.75685-58.49744 7.86315-77.81448 20.72305-14.348984 9.55252-21.047034 20.27812-19.288994 30.88759 1.47887 8.92459 7.52851 17.25386 16.32917 22.48225 9.433694 5.60444 25.249794 10.40668 41.745244 12.67504 5.14768.70791 10.58219 1.5114 12.07668 1.78562l2.71727.49847-2.41537-.0343c-1.32842-.0171-3.63808-.12532-5.13259-.23707zm309.22783-51.17773c.14596-.14596 3.03875-.55004 6.42834-.89789 8.81552-.90464 14.42121-2.14959 23.69925-5.2633 9.78084-3.28246 14.24006-5.56067 18.49435-9.44883 8.30489-7.59022 8.77722-17.22096 1.23055-25.09167-9.74268-10.1611-28.99045-17.2235-54.74737-20.088-9.04371-1.00577-30.69474-.99982-38.04161.009-12.34359 1.69736-24.23799 5.88007-31.54134 11.09164-6.84115 4.88177-9.16127 9.05707-8.81735 15.86784.26487 5.24889 2.2469 8.88711 6.87341 12.61822 1.66832 1.34541 3.97495 3.20697 5.12587 4.13683 1.15092.92982.3265.53443-1.83233-.87864-5.17708-3.38887-9.45139-7.7317-10.95482-11.13044-1.46293-3.30719-1.72489-8.57302-.61613-12.38502 3.07877-10.5848 18.63373-19.32668 41.4608-23.30093 8.7651-1.52603 34.65608-1.50836 44.38186.0299 15.9405 2.52179 30.84096 7.35239 40.79024 13.22371 25.32929 14.94762 22.04997 36.39446-6.97544 45.61915-8.84345 2.81058-15.38316 4.35775-22.32863 5.28252-6.12355.81534-13.17832 1.15275-12.62965.60408zm-183.70888-41.72432c-15.83374-2.4672-29.32573-7.83304-34.8249-13.84995-10.5377-11.52994-1.64131-24.43755 22.22315-32.24315 13.08516-4.27991 24.27552-5.81643 41.96654-5.7623 18.66795.0573 29.60036 1.83298 42.8723 6.96427 6.72491 2.60001 9.66942 4.56958 8.81766 5.89799-.43828.68356-1.46051.44264-5.58283-1.31558-15.10608-6.4429-29.45675-8.7319-50.63588-8.07663-21.12919.65368-35.15259 3.64048-47.83299 10.18771-8.46381 4.37012-12.55052 9.1459-12.55052 14.66664 0 5.54189 3.73407 10.66496 10.5792 14.51448 5.27829 2.96836 16.95513 6.68514 26.28886 8.36783 8.56222 1.54362 7.56536 2.03328-1.32059.64869z"/>
  <path d="M3954.42484 710.93825c.0409-.12498-.14629-1.25228-.41611-2.50511-.44978-2.08861-.53594-2.30277-1.0373-2.57709-.4601-.25173-2.14303-.33332-10.61217-.51436-5.53595-.11833-11.19678-.18145-12.57965-.14025-2.7517.082-6.45446.5709-8.31208 1.0976-3.0138.85443-7.27268 3.05154-9.71314 5.01076-1.2411.99637-1.40001 1.08195-1.79211.96517-2.13385-.6356-4.86562-.0459-6.42547 1.38687-.56287.51705-.57624.51942-4.44326.78394-4.75407.32525-6.87164.62406-12.00319 1.69381-6.3917 1.33247-23.93622 5.50898-24.87061 5.9205-.21406.0942-.53922.35199-.72261.57268-.28883.34765-.26499.70851.1783 2.69933.47238 2.12143.55466 2.32154 1.07103 2.60406.47543.26016 1.96916.33681 9.9583.51101 13.65975.29785 16.96065.1914 20.50227-.66117 3.63182-.87431 8.05573-3.05649 10.87215-5.36293l1.17408-.96149 1.13674.20577c2.1087.38169 4.17529-.1379 5.7313-1.44098.41951-.35134.78701-.6385.81663-.63814.60462.007 7.55112-.51865 8.78917-.66554 3.20929-.38076 11.35536-2.12625 22.25329-4.76825 10.46237-2.53641 10.19479-2.45402 10.44443-3.21619zm-8.48061-.17481c-18.06578 4.44636-23.72825 5.52175-31.12071 5.91024l-.84147.0436-.23956-.87144c-.13183-.47927-.35743-1.03121-.50167-1.22645-.24612-.33332-.22534-.38891.34042-.9106 1.66655-1.5368 6.12895-3.94204 8.65506-4.6651 1.89611-.54267 4.53401-.90868 7.36509-1.02169 2.01765-.0805 19.94791.20002 20.65601.32321.13492.0235.31041.30336.39007.62196.12007.48036.0865.59562-.19646.67486-.18775.0523-2.21579.55688-4.50683 1.1208zm-37.0316 8.01214c-1.64593.76728-3.8705-.55618-3.55911-2.11744.30589-1.5337 2.38613-2.32803 3.91129-1.4935 1.03761.56776 1.34832 1.27371 1.00869 2.29181-.20022.60017-.55383.94292-1.36087 1.31913zm-7.97008 2.28478c-.54169.39132-1.69718 1.10598-2.56775 1.58814-4.08033 2.25995-6.88939 2.9572-12.68167 3.14781-2.38696.0786-19.79607-.24977-20.27158-.38231-.34729-.0968-.54985-1.02797-.25942-1.19304.24059-.13677 8.95162-2.26171 14.90627-3.63616 5.39068-1.24432 10.84949-2.38858 13.08621-2.74315 2.10131-.33318 8.36154-.83819 8.6273-.69605.0992.053.16061.23716.13654.40923-.0242.17209.15312.71369.3936 1.20364.49433 1.00682.5478.91693-1.36948 2.3019zM3845.492248 664.247303a22.173057 6.776718 19.875685 01-4.57464 8.487328 22.173057 6.776718 19.875685 01-29.232971-10.950673 22.173057 6.776718 19.875685 014.125797-8.655464 22.173057 6.776718 19.875685 0129.296326 10.817781M3763.01147 842.88254c-.13745-.20404-.37516-2.32836-.52824-4.72075-.25533-3.98834-.20942-4.41772.55303-5.16704.69972-.68763 3.68702-1.6925 18.83724-6.33625 9.90309-3.0354 20.05913-6.03515 22.56896-6.66602 4.9942-1.2554 11.90764-2.26328 15.51946-2.26242 5.85976.001 14.64495 1.78417 20.03613 4.06604 2.74166 1.16049 3.07131 1.23351 3.71745.82339 3.51636-2.23183 8.73356-2.56339 12.27143-.77991 1.27669.6436 1.30197.64105 8.39656-.85443 8.72206-1.83848 12.68558-2.38031 22.46658-3.07129 12.18293-.8606 45.88842-2.28875 47.7799-2.02451.43334.0605 1.14993.35859 1.59251.66229.69707.47843.83814 1.14004 1.05533 4.94908.23144 4.05894.18532 4.46104-.59994 5.23277-.72303.71064-3.37233 1.61013-17.66213 5.99683-24.43257 7.50037-30.42769 8.99174-37.2365 9.26296-6.98217.27814-16.05678-1.39387-22.30164-4.10897l-2.60325-1.13187-1.94098.9499c-3.60056 1.76206-7.58488 1.88054-11.0497.3286-.93412-.41842-1.74197-.74791-1.79506-.73214-1.08444.3215-13.85472 2.91644-16.15783 3.28327-5.97013.95093-21.52108 1.96263-42.48189 2.76385-20.12301.76921-19.59945.78107-20.43732-.46341zm15.17406-4.63836c34.7812-1.20824 45.52064-2.15974 59.0234-5.22953l1.5367-.35047-.0136-1.69054c-.007-.92978.11736-2.03817.27754-2.46306.27296-.72542.20731-.81484-1.07697-1.46533-3.78292-1.91622-13.04048-3.97-17.95554-3.98341-3.68926-.0102-8.62348.67619-13.7764 1.91619-3.67235.88373-35.7997 10.53026-37.0113 11.11301-.23085.1109-.404.70422-.38414 1.31849.0288.92577.14807 1.11609.69765 1.11443.36458-.002 4.27184-.12748 8.6827-.28058zm70.73331-4.4602c3.35349.54181 6.68244-2.97432 5.32603-5.6255-1.33247-2.60437-5.48142-2.97336-7.80087-.69381-1.578 1.55087-1.77728 2.97981-.64606 4.63912.66633.97809 1.47748 1.41471 3.12178 1.68032zm15.50919.0485c1.17443.42807 3.61843 1.12518 5.43108 1.54913 8.49588 1.98708 13.90701 1.80977 24.42896-.80029 4.33605-1.07563 35.50107-10.54239 36.2893-11.02337.57571-.35128.46549-2.13046-.14129-2.27945-.50276-.12341-17.26399.49333-28.68174 1.05555-10.3364.50891-20.74438 1.23261-24.95075 1.73486-3.95177.47168-15.47618 2.75448-15.88203 3.14581-.15154.14589-.16809.50872-.0378.80614.1311.29738.0883 1.36253-.0948 2.36693-.37627 2.06409-.51842 1.92954 3.63835 3.44466zM3693.92816 734.99751c.0196-.17942-.55109-1.64038-1.26825-3.24655-1.19555-2.67766-1.37193-2.94088-2.12294-3.1673-.68919-.2078-2.97251.15922-14.39794 2.3145-7.46836 1.40883-15.08881 2.92717-16.93434 3.37413-3.67233.88934-8.50676 2.59458-10.85241 3.82803-3.8056 2.001-8.9031 6.15783-11.62586 9.48022-1.38463 1.68961-1.57381 1.84955-2.13348 1.80373-3.04577-.24931-6.5476 1.31621-8.23672 3.68224-.60954.85383-.62683.86078-5.74532 2.31126-6.29268 1.78312-9.052 2.78412-15.64078 5.67402-8.20678 3.59964-30.58654 14.17725-31.72488 14.99454-.26078.18725-.62451.62543-.80831.97373-.28944.54871-.15524 1.0266 1.0039 3.57475 1.23518 2.71536 1.40239 2.96078 2.17586 3.19399.71219.21476 2.74-.10531 13.51882-2.13383 18.4296-3.46837 22.83259-4.5461 27.34761-6.6941 4.62997-2.2027 9.95335-6.38628 13.08269-10.28142l1.3045-1.62377 1.58495-.0456c2.94008-.0846 5.5684-1.36762 7.2891-3.55833.46392-.59065.87615-1.0804.91602-1.0883.81411-.16135 9.9944-2.83496 11.61552-3.38286 4.20229-1.42022 14.64824-6.07137 28.53611-12.70584 13.33279-6.3693 12.99677-6.18288 13.11619-7.27719zm-11.43909 2.1669c-23.00339 11.08766-30.30361 14.13549-40.12176 16.75073l-1.11772.29692-.56826-1.10268c-.31267-.60635-.7721-1.28367-1.02105-1.50503-.42493-.37798-.41277-.45852.19932-1.31939 1.80298-2.53589 7.11489-7.02988 10.3027-8.71634 2.39275-1.26594 5.83192-2.5044 9.60208-3.45791 2.68692-.67956 26.84696-5.38049 27.83283-5.41558.18778-.007.50279.3195.7.72484.29735.61111.28489.77543-.0727.96198-.23759.12294-2.81813 1.37537-5.73533 2.78157zm-47.46491 21.24756c-1.99323 1.49657-5.35565.34914-5.37958-1.83584-.0235-2.1464 2.54532-3.80232 4.82997-3.11343 1.55431.46866 2.17152 1.32876 2.0037 2.79226-.0989.86273-.47676 1.42321-1.45409 2.15701zm-10.05692 5.3255c-.61667.67893-1.96613 1.96597-2.99878 2.86005-4.83993 4.19067-8.41505 5.92259-16.14019 7.81893-3.18349.78145-26.65712 5.27069-27.33326 5.22736-.49385-.0317-1.02957-1.22489-.68632-1.52879.28439-.25184 11.38167-5.57257 18.98959-9.1048 6.88737-3.19774 13.89456-6.28041 16.79812-7.39002 2.72774-1.04251 10.99226-3.49363 11.38944-3.378.14825.043.28282.27304.29937.51089.0164.2379.40767.91516.86948 1.50503.94902 1.21217.99538 1.07629-1.18732 3.4793zM3722.45248 681.08888c-.0352-.11231.14507-1.11963.4008-2.2384.42626-1.86511.50581-2.05592.95787-2.29589.41479-.22023 1.92264-.27434 9.50807-.34111 4.9583-.0436 10.02782-.0365 11.26557.016 2.46299.10437 5.77302.58383 7.43042 1.07637 2.68891.79927 6.4777 2.81426 8.64089 4.59604 1.10008.90612 1.24141.98456 1.59383.88438 1.91782-.54509 4.35724.0136 5.73782 1.31417.4982.46932.51014.47158 3.96973.75201 4.25321.34471 6.14596.63616 10.72879 1.65175 5.70822 1.26508 21.37081 5.20227 22.20284 5.58128.19063.0867.47888.32123.6406.5209.2547.31454.2293.63739-.19004 2.41501-.44684 1.89427-.52274 2.07252-.98836 2.31965-.42865.22761-1.76701.27942-8.92256.34547-12.2345.11293-15.18898-.0195-18.35061-.8228-3.24214-.82373-7.1788-2.82753-9.67471-4.92442l-1.04046-.87414-1.02018.17143c-1.89245.31805-3.73706-.17046-5.11565-1.35477-.37169-.31933-.69753-.5806-.72404-.58061-.54147-.00021-6.75556-.54939-7.86248-.69485-2.86935-.37709-10.14382-2.03172-19.87225-4.52006-9.3396-2.38889-9.10095-2.31213-9.31589-2.9974zm7.59565-.061c16.12632 4.18469 21.18447 5.21135 27.7994 5.64242l.75297.0486.22451-.77756c.12314-.42774.33175-.9193.463-1.09251.22414-.29572.20615-.34572-.29456-.81923-1.47495-1.39482-5.44358-3.59873-7.69734-4.27462-1.69157-.50771-4.04961-.86467-6.5833-.99774-1.80574-.0948-17.86393-.0454-18.49936.0569-.12103.0194-.28135.26814-.35626.55254-.11311.42872-.0842.53236.16831.60648.16755.0488 1.97778.52357 4.02287 1.0543zm33.06843 7.59103c1.46517.70556 3.47199-.45445 3.21073-1.85592-.25663-1.37676-2.11037-2.11143-3.48543-1.38133-.93547.49669-1.22163 1.12532-.92904 2.04075.17254.53964.48531.85054 1.20371 1.19648zm7.11081 2.13557c.48063.35649 1.50724 1.00942 2.28134 1.45092 3.62814 2.06954 6.13553 2.72553 11.31991 2.96137 2.13644.0972 17.72852-.00082 18.15578-.11414.31206-.0828.5039-.91428.2458-1.06531-.21388-.12524-7.98998-2.12595-13.30638-3.42369-4.81287-1.17485-9.68789-2.26091-11.68671-2.60356-1.8778-.32196-7.4776-.84464-7.71717-.72037-.0894.0464-.14645.21056-.12693.36489.0196.15435-.1451.63732-.366 1.07332-.454.89593-.50083.81486 1.20033 2.07657z"/>
  <path d="M3754.32412 798.63306l-2.10529 7.11652s-2.51145 8.64726 4.78456 11.58315c7.29604 2.93587 8.7453 3.2367 8.7453 3.2367s9.83527 3.40291 12.80249-2.18696c2.9672-5.5899 4.14717-8.0717 4.14717-8.0717" stroke="#000" stroke-width=".238463"/>
  <path d="M3754.31146 798.67584s1.73273.0735 4.56348.82058c2.83076.74708 2.84158.75025 2.84158.75025s4.38009 1.28019 7.70858 2.80104c3.32848 1.52085 3.33793 1.52543 3.33793 1.52543s2.22089 1.07035 3.80077 1.9699l1.57988.89956s.58488.23913 2.55928 1.57554l1.97443 1.33641" stroke="#000" stroke-width=".264583"/>
  <path d="M3773.689981 807.996058a10.16475 7.269111 13.722056 01-2.14121 10.016308 10.16475 7.269111 13.722056 01-13.974364-3.113537 10.16475 7.269111 13.722056 011.92658-10.064127 10.16475 7.269111 13.722056 0114.003955 2.958964" fill="#fff"/>
  <path d="M3767.320977 804.334569c-.359136-.088222-.717356-.165145-1.050856-.22505a10.310772 7.37353 13.722056 00-6.869019.722763 10.310772 7.37353 13.722056 00-1.954243 10.2087 10.310772 7.37353 13.722056 0014.17517 3.158217 10.310772 7.37353 13.722056 002.171917-10.160182l-.187578-.20532a10.310772 7.37353 13.722056 00-5.17961-3.191714c-.350085-.109661-.72808-.214616-1.105781-.30741zm-.247223 1.065912l.000135.00003c1.434054.354783 2.811036.962186 3.942013 1.764265 2.000337 1.418633 3.191763 3.381822 3.230197 5.32276.011226.569012-.248252 1.635593-.52195 2.146177-1.3417 2.50109-4.882165 3.790928-8.719772 3.176685-1.644784-.26315-3.143635-.838004-4.508235-1.728609-2.187793-1.427873-3.465545-3.308148-3.611374-5.314393-.047348-.651455.26438-2.00089.58277-2.522722 1.21124-1.985005 3.653672-3.161057 6.643367-3.198993.974152-.012355 1.981855.112107 2.963051.354848zm-.345831 1.28265c-1.251295-.304749-1.721923-.353501-2.809653-.292617-2.044883.114458-3.82678 1.027082-4.710222 2.412365-.357463.56055-.587773 1.503745-.528888 2.165963.180836 2.033155 1.864452 3.943388 4.388358 4.978904.294517.120805.783332.25773 1.515219.424669 1.263442.288128 1.939074.334594 3.03514.208509 5.3889-.619908 6.571038-5.715045 2.015988-8.689307-.998345-.651883-1.534307-.874748-2.905942-1.208485zm-.190369.289305c1.069783.263332 2.028835.753654 2.672324 1.455977.509612.5562.707534.991584.619845 1.363348-.062015.262595-.090104.293209-.380852.413715-.350187.145142-.75206.19489-2.061073.254538-1.77838.081035-2.474643.190569-4.357562.685616-.53886.141669-1.144864.27538-1.346724.297296-.798777.086744-1.249368-.110254-1.5709-.686895-.565494-1.014126-.248101-2.168662.808468-2.940712 1.450437-1.059845 3.709434-1.312189 5.616474-.842883z"/>
  <text style="line-height:0;white-space:pre;shape-inside:url(#a)" transform="translate(3683.9236 -455.96072)" font-weight="400" font-size="10.5833" font-family="sans-serif">
    <tspan x="-3987.4648" y="376.03218"><tspan style="line-height:1.1;-inkscape-font-specification:Montserrat" font-weight="700" font-size="14.1111" font-family="Montserrat" letter-spacing="1.32292" word-spacing="0" fill="#333">FIND OUT MORE</tspan></tspan>
  </text>
  <path d="M-311.28447-96.1274h153.4583M-311.28447-101.41907h31.75M-157.82617-101.41907h-31.75M-258.36787-74.96074l-26.4583 5.29167v10.58333M-184.28447-59.08574v-10.58333l-21.1667-5.29167" fill="none" stroke="#000" stroke-width="1.32292"/>
  <text style="line-height:0;white-space:pre;shape-inside:url(#b)" transform="translate(3976.4963 -500.80571)" x="207.56837" font-weight="400" font-size="10.5833" font-family="sans-serif">
    <tspan x="-3985.2452" y="376.03218"><tspan style="line-height:1.1;-inkscape-font-specification:Montserrat;text-align:center" font-weight="700" font-size="14.1111" font-family="Montserrat" letter-spacing="1.32292" word-spacing="0" text-anchor="middle" fill="#333">FIND OUT </tspan></tspan><tspan x="-3969.074" y="391.5544"><tspan style="line-height:1.1;-inkscape-font-specification:Montserrat;text-align:center" font-weight="700" font-size="14.1111" font-family="Montserrat" letter-spacing="1.32292" word-spacing="0" text-anchor="middle" fill="#333">MORE</tspan></tspan>
  </text>
  <path d="M-17.59697-141.10657h100.5416" fill="none" stroke="#000" stroke-width="1.85208"/>
  <path d="M3.56963-119.9399l-10.5833 5.29166v7.9375M61.77803-119.9399l10.5833 5.29166v7.9375" fill="none" stroke="#000" stroke-width="1.32292"/>
  <path d="M-17.59697-146.39824h26.4583M56.48633-146.39824h26.4583" fill="none" stroke="#000" stroke-width="1.47907"/>
  <g aria-label="FIND OUT MORE" transform="translate(3984.074 -358.2308)" style="line-height:0;white-space:pre;shape-inside:url(#c)" font-weight="400" font-size="10.5833" font-family="sans-serif" fill="none" fill-opacity=".281124" stroke="#333" stroke-width=".529167">
    <path d="M-3981.788 376.03218h-2.286v-9.87777h7.4648v1.83445h-5.1788v2.61055h4.572v1.83444h-4.572zM-3973.7341 366.15441v9.87777h2.286v-9.87777h-2.286M-3965.525 376.03218h-2.2578v-9.87777h1.8909l4.9107 5.99722v-5.99722h2.2578v9.87777h-1.8768l-4.9248-5.99722zM-3952.7721 368.03119v6.12422l2.6947-.001s2.5095-.13212 2.6459-3.04254c.1363-2.91041-2.9105-3.07106-2.9105-3.07106z"/>
    <path d="M-3955.0581 376.03218l4.7161.001s4.6414-.15941 5.1654-4.12816c.5239-3.96875-2.7841-5.82083-4.9008-5.82083h-4.9574zM-3935.0386 370.58308l-2.3388-.00053s-.5291 5.29167 5.2917 5.55625c5.8208.26458 5.5562-5.55625 5.5562-5.55625l-2.3812-.00001s.4103 3.56031-2.9104 3.5717c-3.3208.0114-3.26-2.77687-3.2175-3.57116zM-3937.9016 364.89703s.8576-2.62842 3.5513-2.08739c2.6938.54104 2.4665 3.20041 2.4665 3.20041l2.2837.42238s.1221-.7751-.1044-1.67072c-.2264-.89563-.4415-1.15483-.4415-1.15483l4.8294.90483.3584-1.91326-18.4535-3.44472-.3584 1.91326 5.117.94519s-.1833.0592-.8175.89744c-.6343.83821-.7147 1.56483-.7147 1.56483zM-3930.2336 361.32212l5.3249.98495.1226-.66271-5.3249-.98494zM-3943.3541 358.83147l5.3289.9812.1187-.60721-5.3346-.97466zM-3921.3291 366.15441h-2.286v5.75105s-.041 4.35879 4.4772 4.29606c4.5186-.0627 4.5186-4.03148 4.5186-4.03148v-5.9978l-2.3032-.0178v5.75105s.052 2.38125-2.1935 2.38125c-2.2452 0-2.1908-2.11667-2.1908-2.11667l-.017-6.01563M-3906.9252 368.01708h3.1609v-1.86267h-8.6078v1.86267h3.1609v8.0151h2.286zM-3965.7578 391.5544h-2.1448v-9.87777h1.8908l3.6972 6.13833 3.6406-6.13833h1.8768l.028 9.87777h-2.1448l-.014-5.92666-2.9069 4.88244h-1.0301l-2.8928-4.75544zM-3951.4003 386.45754s.2646-2.91042 3.175-2.91042c2.9104 0 2.9104 2.91042 2.9104 2.91042s.3396 3.46272-3.0052 3.31886c-3.3448-.14386-3.0802-3.31886-3.0802-3.31886z"/>
    <path d="M-3948.2253 381.51504s-5.5562-.0846-5.5562 4.9425c0 5.02708 5.5562 5.29167 5.5562 5.29167s5.2917-.26459 5.2917-4.7625c0-4.49792-3.7042-5.65167-5.2917-5.47167zM-3939.871 391.5544v-9.87777l4.3457.0144s3.7042-.26057 4.2333 2.91443c.5292 3.175-2.0456 3.77394-2.0456 3.77394l2.2154 3.175h-2.4553l-1.905-2.75167h-2.1025v2.75167z"/>
    <path d="M-3935.5253 383.54712h-2.1167l.057 3.43528 2.0594.004s1.9595-.0121 1.9058-1.72585c-.054-1.71373-1.9058-1.71373-1.9058-1.71373zM-3920.7086 383.54712l-5.196-.036-.096 2.15272 4.6818-.008v1.778h-4.5861l-.096 2.19858 5.472.0874.0006 1.83458-7.5887-.0698-.059-9.80799 7.4679.0184z"/>
  </g>
</svg>
